<?xml version="1.0" encoding="UTF-8" standalone="no"?>
<!DOCTYPE svg PUBLIC "-//W3C//DTD SVG 1.1//EN"
 "http://www.w3.org/Graphics/SVG/1.1/DTD/svg11.dtd">
<!-- Generated by graphviz version 2.49.3 (0)
 -->
<!-- Title: G Pages: 1 -->
<svg width="174pt" height="270pt"
 viewBox="0.00 0.00 173.50 270.00" xmlns="http://www.w3.org/2000/svg" xmlns:xlink="http://www.w3.org/1999/xlink">
<g id="graph0" class="graph" transform="scale(1 1) rotate(0) translate(4 266)">
<title>G</title>
<polygon fill="white" stroke="transparent" points="-4,4 -4,-266 169.5,-266 169.5,4 -4,4"/>
<!-- Person -->
<g id="node1" class="node">
<title>Person</title>
<polygon fill="none" stroke="black" points="12.5,-146.5 12.5,-261.5 153.5,-261.5 153.5,-146.5 12.5,-146.5"/>
<text text-anchor="middle" x="83" y="-246.3" font-family="Times,serif" font-size="14.00">Person</text>
<polyline fill="none" stroke="black" points="12.5,-238.5 153.5,-238.5 "/>
<text text-anchor="middle" x="40" y="-188.8" font-family="Times,serif" font-size="14.00">fields</text>
<polyline fill="none" stroke="black" points="67.5,-146.5 67.5,-238.5 "/>
<text text-anchor="middle" x="110.5" y="-223.3" font-family="Times,serif" font-size="14.00">name</text>
<polyline fill="none" stroke="black" points="67.5,-215.5 153.5,-215.5 "/>
<text text-anchor="middle" x="110.5" y="-200.3" font-family="Times,serif" font-size="14.00">birthDate</text>
<polyline fill="none" stroke="black" points="67.5,-192.5 153.5,-192.5 "/>
<text text-anchor="middle" x="110.5" y="-177.3" font-family="Times,serif" font-size="14.00">Boss</text>
<polyline fill="none" stroke="black" points="67.5,-169.5 153.5,-169.5 "/>
<text text-anchor="middle" x="110.5" y="-154.3" font-family="Times,serif" font-size="14.00">...</text>
</g>
<!-- Student -->
<g id="node2" class="node">
<title>Student</title>
<polygon fill="none" stroke="black" points="0,-73.5 0,-109.5 74,-109.5 74,-73.5 0,-73.5"/>
<text text-anchor="middle" x="37" y="-87.8" font-family="Times,serif" font-size="14.00">Student</text>
</g>
<!-- Person&#45;&gt;Student -->
<g id="edge1" class="edge">
<title>Person&#45;&gt;Student</title>
<path fill="none" stroke="black" d="M59.46,-146.46C55.5,-136.94 51.56,-127.48 48.11,-119.2"/>
<polygon fill="black" stroke="black" points="51.26,-117.64 44.18,-109.76 44.8,-120.34 51.26,-117.64"/>
</g>
<!-- Teacher -->
<g id="node4" class="node">
<title>Teacher</title>
<polygon fill="none" stroke="black" points="92.5,-73.5 92.5,-109.5 165.5,-109.5 165.5,-73.5 92.5,-73.5"/>
<text text-anchor="middle" x="129" y="-87.8" font-family="Times,serif" font-size="14.00">Teacher</text>
</g>
<!-- Person&#45;&gt;Teacher -->
<g id="edge3" class="edge">
<title>Person&#45;&gt;Teacher</title>
<path fill="none" stroke="black" d="M106.54,-146.46C110.5,-136.94 114.44,-127.48 117.89,-119.2"/>
<polygon fill="black" stroke="black" points="121.2,-120.34 121.82,-109.76 114.74,-117.64 121.2,-120.34"/>
</g>
<!-- Grad. Student -->
<g id="node3" class="node">
<title>Grad. Student</title>
<polygon fill="none" stroke="black" points="24,-0.5 24,-36.5 142,-36.5 142,-0.5 24,-0.5"/>
<text text-anchor="middle" x="83" y="-14.8" font-family="Times,serif" font-size="14.00">Grad. Student</text>
</g>
<!-- Student&#45;&gt;Grad. Student -->
<g id="edge2" class="edge">
<title>Student&#45;&gt;Grad. Student</title>
<path fill="none" stroke="black" d="M48.14,-73.31C53.62,-64.85 60.33,-54.48 66.41,-45.11"/>
<polygon fill="black" stroke="black" points="69.47,-46.82 71.97,-36.53 63.59,-43.02 69.47,-46.82"/>
</g>
<!-- Teacher&#45;&gt;Grad. Student -->
<g id="edge4" class="edge">
<title>Teacher&#45;&gt;Grad. Student</title>
<path fill="none" stroke="black" d="M117.86,-73.31C112.38,-64.85 105.67,-54.48 99.59,-45.11"/>
<polygon fill="black" stroke="black" points="102.41,-43.02 94.03,-36.53 96.53,-46.82 102.41,-43.02"/>
</g>
</g>
</svg>
