<?xml version="1.0" encoding="UTF-8" standalone="no"?>
<!DOCTYPE svg PUBLIC "-//W3C//DTD SVG 1.1//EN"
 "http://www.w3.org/Graphics/SVG/1.1/DTD/svg11.dtd">
<!-- Generated by graphviz version 2.49.3 (0)
 -->
<!-- Title: G Pages: 1 -->
<svg width="890pt" height="422pt"
 viewBox="0.00 0.00 889.94 422.00" xmlns="http://www.w3.org/2000/svg" xmlns:xlink="http://www.w3.org/1999/xlink">
<g id="graph0" class="graph" transform="scale(1 1) rotate(0) translate(4 418)">
<title>G</title>
<polygon fill="white" stroke="transparent" points="-4,4 -4,-418 885.94,-418 885.94,4 -4,4"/>
<!-- Imperative -->
<g id="node1" class="node">
<title>Imperative</title>
<ellipse fill="none" stroke="black" cx="301.94" cy="-309" rx="61.99" ry="18"/>
<text text-anchor="middle" x="301.94" y="-305.3" font-family="Times,serif" font-size="14.00">Imperative</text>
</g>
<!-- Machine -->
<g id="node2" class="node">
<title>Machine</title>
<ellipse fill="none" stroke="black" cx="64.94" cy="-207" rx="50.09" ry="18"/>
<text text-anchor="middle" x="64.94" y="-203.3" font-family="Times,serif" font-size="14.00">Machine</text>
</g>
<!-- Imperative&#45;&gt;Machine -->
<g id="edge1" class="edge">
<title>Imperative&#45;&gt;Machine</title>
<path fill="none" stroke="black" d="M241.54,-305.08C159.52,-300.5 21.3,-290.28 5.94,-273 -2.92,-263.03 -0.66,-254.59 5.94,-243 9.87,-236.09 15.77,-230.4 22.34,-225.77"/>
<polygon fill="black" stroke="black" points="24.27,-228.69 30.93,-220.45 20.58,-222.74 24.27,-228.69"/>
<text text-anchor="middle" x="54.44" y="-254.3" font-family="Times,serif" font-size="14.00">explicit gotos</text>
</g>
<!-- Imperative&#45;&gt;Machine -->
<g id="edge2" class="edge">
<title>Imperative&#45;&gt;Machine</title>
<path fill="none" stroke="black" d="M240.58,-306.42C204.83,-303.02 160.19,-294.31 125.94,-273 111.67,-264.13 114.27,-255.4 102.94,-243 99.16,-238.86 94.96,-234.66 90.77,-230.67"/>
<polygon fill="black" stroke="black" points="93.05,-228.01 83.33,-223.77 88.29,-233.14 93.05,-228.01"/>
<text text-anchor="middle" x="191.44" y="-261.8" font-family="Times,serif" font-size="14.00">explicit stack</text>
<text text-anchor="middle" x="191.44" y="-246.8" font-family="Times,serif" font-size="14.00">(derecursification)</text>
</g>
<!-- Functional -->
<g id="node4" class="node">
<title>Functional</title>
<ellipse fill="none" stroke="black" cx="461.94" cy="-120" rx="59.59" ry="18"/>
<text text-anchor="middle" x="461.94" y="-116.3" font-family="Times,serif" font-size="14.00">Functional</text>
</g>
<!-- Imperative&#45;&gt;Functional -->
<g id="edge6" class="edge">
<title>Imperative&#45;&gt;Functional</title>
<path fill="none" stroke="black" d="M291.57,-290.98C278.01,-266.28 258.38,-220.07 279.94,-189 305.64,-151.96 354.12,-135.06 394.59,-127.37"/>
<polygon fill="black" stroke="black" points="395.44,-130.77 404.69,-125.6 394.23,-123.88 395.44,-130.77"/>
<text text-anchor="middle" x="326.94" y="-203.3" font-family="Times,serif" font-size="14.00">explicit state</text>
</g>
<!-- Concurrent -->
<g id="node5" class="node">
<title>Concurrent</title>
<ellipse fill="none" stroke="black" cx="446.94" cy="-207" rx="63.89" ry="18"/>
<text text-anchor="middle" x="446.94" y="-203.3" font-family="Times,serif" font-size="14.00">Concurrent</text>
</g>
<!-- Imperative&#45;&gt;Concurrent -->
<g id="edge8" class="edge">
<title>Imperative&#45;&gt;Concurrent</title>
<path fill="none" stroke="black" d="M314.11,-291.14C325.22,-276.75 342.78,-256.33 361.94,-243 372.38,-235.73 384.55,-229.6 396.38,-224.6"/>
<polygon fill="black" stroke="black" points="397.77,-227.81 405.74,-220.83 395.16,-221.32 397.77,-227.81"/>
<text text-anchor="middle" x="447.44" y="-254.3" font-family="Times,serif" font-size="14.00">state&#45;managing process</text>
</g>
<!-- Object&#45;Oriented -->
<g id="node3" class="node">
<title>Object&#45;Oriented</title>
<ellipse fill="none" stroke="black" cx="301.94" cy="-396" rx="85.29" ry="18"/>
<text text-anchor="middle" x="301.94" y="-392.3" font-family="Times,serif" font-size="14.00">Object&#45;Oriented</text>
</g>
<!-- Object&#45;Oriented&#45;&gt;Imperative -->
<g id="edge3" class="edge">
<title>Object&#45;Oriented&#45;&gt;Imperative</title>
<path fill="none" stroke="black" d="M301.94,-377.8C301.94,-366.16 301.94,-350.55 301.94,-337.24"/>
<polygon fill="black" stroke="black" points="305.44,-337.18 301.94,-327.18 298.44,-337.18 305.44,-337.18"/>
<text text-anchor="middle" x="389.44" y="-348.8" font-family="Times,serif" font-size="14.00">explicit method pointers</text>
</g>
<!-- Functional&#45;&gt;Imperative -->
<g id="edge4" class="edge">
<title>Functional&#45;&gt;Imperative</title>
<path fill="none" stroke="black" d="M504.54,-132.82C515.69,-138.05 526.4,-145.5 532.94,-156 560.4,-200.16 566.84,-233.57 532.94,-273 512.66,-296.59 433.76,-304.47 373.76,-307.01"/>
<polygon fill="black" stroke="black" points="373.41,-303.52 363.55,-307.39 373.68,-310.51 373.41,-303.52"/>
<text text-anchor="middle" x="630.94" y="-210.8" font-family="Times,serif" font-size="14.00">explicit closures</text>
<text text-anchor="middle" x="630.94" y="-195.8" font-family="Times,serif" font-size="14.00">(defunctionalization)</text>
</g>
<!-- Functional&#45;&gt;Imperative -->
<g id="edge5" class="edge">
<title>Functional&#45;&gt;Imperative</title>
<path fill="none" stroke="black" d="M520.14,-124.54C608.17,-132.18 759.82,-155.57 708.94,-225 669.95,-278.2 478.9,-297.75 372.99,-304.57"/>
<polygon fill="black" stroke="black" points="372.46,-301.1 362.7,-305.22 372.9,-308.09 372.46,-301.1"/>
<text text-anchor="middle" x="800.44" y="-203.3" font-family="Times,serif" font-size="14.00">inline higher&#45;order fct.</text>
</g>
<!-- Functional&#45;&gt;Functional -->
<g id="edge7" class="edge">
<title>Functional&#45;&gt;Functional</title>
<path fill="none" stroke="black" d="M516.11,-127.77C529.63,-127.22 539.73,-124.63 539.73,-120 539.73,-116.63 534.4,-114.35 526.29,-113.14"/>
<polygon fill="black" stroke="black" points="526.38,-109.63 516.11,-112.23 525.76,-116.6 526.38,-109.63"/>
<text text-anchor="middle" x="592.73" y="-116.3" font-family="Times,serif" font-size="14.00">explicit thunks</text>
</g>
<!-- Logic -->
<g id="node6" class="node">
<title>Logic</title>
<ellipse fill="none" stroke="black" cx="461.94" cy="-18" rx="36" ry="18"/>
<text text-anchor="middle" x="461.94" y="-14.3" font-family="Times,serif" font-size="14.00">Logic</text>
</g>
<!-- Functional&#45;&gt;Logic -->
<g id="edge10" class="edge">
<title>Functional&#45;&gt;Logic</title>
<path fill="none" stroke="black" d="M407.27,-112.4C372.38,-106.94 331.74,-97.81 320.94,-84 312.72,-73.5 312.72,-64.5 320.94,-54 332.8,-38.84 380.65,-29.31 417.35,-24.09"/>
<polygon fill="black" stroke="black" points="417.93,-27.55 427.37,-22.73 416.99,-20.61 417.93,-27.55"/>
<text text-anchor="middle" x="451.44" y="-72.8" font-family="Times,serif" font-size="14.00">explicit result</text>
<text text-anchor="middle" x="451.44" y="-57.8" font-family="Times,serif" font-size="14.00">(embedding functions into relations)</text>
</g>
<!-- Concurrent&#45;&gt;Functional -->
<g id="edge9" class="edge">
<title>Concurrent&#45;&gt;Functional</title>
<path fill="none" stroke="black" d="M406.08,-193.12C386.1,-184.52 368.4,-171.87 378.94,-156 385.09,-146.72 394.25,-139.9 404.25,-134.88"/>
<polygon fill="black" stroke="black" points="405.87,-137.99 413.62,-130.76 403.06,-131.58 405.87,-137.99"/>
<text text-anchor="middle" x="455.94" y="-159.8" font-family="Times,serif" font-size="14.00">explicit continuations</text>
</g>
<!-- Logic&#45;&gt;Functional -->
<g id="edge11" class="edge">
<title>Logic&#45;&gt;Functional</title>
<path fill="none" stroke="black" d="M497.7,-18.71C525.57,-20.62 562.67,-28.31 581.94,-54 589.94,-64.67 589.94,-73.33 581.94,-84 569.74,-100.26 550.4,-109.31 530.78,-114.25"/>
<polygon fill="black" stroke="black" points="529.87,-110.86 520.85,-116.41 531.36,-117.7 529.87,-110.86"/>
<text text-anchor="middle" x="640.44" y="-65.3" font-family="Times,serif" font-size="14.00">explicit search</text>
</g>
</g>
</svg>
