<?xml version="1.0" encoding="UTF-8" standalone="no"?>
<!DOCTYPE svg PUBLIC "-//W3C//DTD SVG 1.1//EN"
 "http://www.w3.org/Graphics/SVG/1.1/DTD/svg11.dtd">
<!-- Generated by graphviz version 2.49.3 (0)
 -->
<!-- Title: G Pages: 1 -->
<svg width="350pt" height="260pt"
 viewBox="0.00 0.00 350.00 260.00" xmlns="http://www.w3.org/2000/svg" xmlns:xlink="http://www.w3.org/1999/xlink">
<g id="graph0" class="graph" transform="scale(1 1) rotate(0) translate(4 256)">
<title>G</title>
<polygon fill="white" stroke="transparent" points="-4,4 -4,-256 346,-256 346,4 -4,4"/>
<!-- 10 -->
<g id="node1" class="node">
<title>10</title>
<ellipse fill="none" stroke="black" cx="135" cy="-234" rx="27" ry="18"/>
<text text-anchor="middle" x="135" y="-230.3" font-family="Times,serif" font-size="14.00">10</text>
</g>
<!-- 5 -->
<g id="node2" class="node">
<title>5</title>
<ellipse fill="none" stroke="black" cx="99" cy="-162" rx="27" ry="18"/>
<text text-anchor="middle" x="99" y="-158.3" font-family="Times,serif" font-size="14.00">5</text>
</g>
<!-- 10&#45;&gt;5 -->
<g id="edge1" class="edge">
<title>10&#45;&gt;5</title>
<path fill="none" stroke="black" d="M126.65,-216.76C122.29,-208.28 116.85,-197.71 111.96,-188.2"/>
<polygon fill="black" stroke="black" points="114.99,-186.44 107.3,-179.15 108.77,-189.64 114.99,-186.44"/>
</g>
<!-- 20 -->
<g id="node5" class="node">
<title>20</title>
<ellipse fill="none" stroke="black" cx="171" cy="-162" rx="27" ry="18"/>
<text text-anchor="middle" x="171" y="-158.3" font-family="Times,serif" font-size="14.00">20</text>
</g>
<!-- 10&#45;&gt;20 -->
<g id="edge4" class="edge">
<title>10&#45;&gt;20</title>
<path fill="none" stroke="black" d="M143.35,-216.76C147.71,-208.28 153.15,-197.71 158.04,-188.2"/>
<polygon fill="black" stroke="black" points="161.23,-189.64 162.7,-179.15 155.01,-186.44 161.23,-189.64"/>
</g>
<!-- 2 -->
<g id="node3" class="node">
<title>2</title>
<ellipse fill="none" stroke="black" cx="27" cy="-90" rx="27" ry="18"/>
<text text-anchor="middle" x="27" y="-86.3" font-family="Times,serif" font-size="14.00">2</text>
</g>
<!-- 5&#45;&gt;2 -->
<g id="edge2" class="edge">
<title>5&#45;&gt;2</title>
<path fill="none" stroke="black" d="M84.43,-146.83C74.25,-136.94 60.48,-123.55 48.97,-112.36"/>
<polygon fill="black" stroke="black" points="51.41,-109.85 41.8,-105.38 46.53,-114.87 51.41,-109.85"/>
</g>
<!-- 7 -->
<g id="node4" class="node">
<title>7</title>
<ellipse fill="none" stroke="black" cx="99" cy="-90" rx="27" ry="18"/>
<text text-anchor="middle" x="99" y="-86.3" font-family="Times,serif" font-size="14.00">7</text>
</g>
<!-- 5&#45;&gt;7 -->
<g id="edge3" class="edge">
<title>5&#45;&gt;7</title>
<path fill="none" stroke="black" d="M99,-143.7C99,-135.98 99,-126.71 99,-118.11"/>
<polygon fill="black" stroke="black" points="102.5,-118.1 99,-108.1 95.5,-118.1 102.5,-118.1"/>
</g>
<!-- 12 -->
<g id="node6" class="node">
<title>12</title>
<ellipse fill="none" stroke="black" cx="171" cy="-90" rx="27" ry="18"/>
<text text-anchor="middle" x="171" y="-86.3" font-family="Times,serif" font-size="14.00">12</text>
</g>
<!-- 20&#45;&gt;12 -->
<g id="edge5" class="edge">
<title>20&#45;&gt;12</title>
<path fill="none" stroke="black" d="M171,-143.7C171,-135.98 171,-126.71 171,-118.11"/>
<polygon fill="black" stroke="black" points="174.5,-118.1 171,-108.1 167.5,-118.1 174.5,-118.1"/>
</g>
<!-- 22 -->
<g id="node7" class="node">
<title>22</title>
<ellipse fill="none" stroke="black" cx="243" cy="-90" rx="27" ry="18"/>
<text text-anchor="middle" x="243" y="-86.3" font-family="Times,serif" font-size="14.00">22</text>
</g>
<!-- 20&#45;&gt;22 -->
<g id="edge6" class="edge">
<title>20&#45;&gt;22</title>
<path fill="none" stroke="black" d="M185.57,-146.83C195.75,-136.94 209.52,-123.55 221.03,-112.36"/>
<polygon fill="black" stroke="black" points="223.47,-114.87 228.2,-105.38 218.59,-109.85 223.47,-114.87"/>
</g>
<!-- new10 -->
<g id="node8" class="node">
<title>new10</title>
<ellipse fill="none" stroke="red" cx="225" cy="-234" rx="27" ry="18"/>
<text text-anchor="middle" x="225" y="-230.3" font-family="Times,serif" font-size="14.00">10</text>
</g>
<!-- new10&#45;&gt;5 -->
<g id="edge7" class="edge">
<title>new10&#45;&gt;5</title>
<path fill="none" stroke="red" d="M204.76,-221.75C184,-210.22 151.52,-192.18 128.02,-179.12"/>
<polygon fill="red" stroke="red" points="129.64,-176.02 119.19,-174.22 126.24,-182.13 129.64,-176.02"/>
</g>
<!-- new20 -->
<g id="node9" class="node">
<title>new20</title>
<ellipse fill="none" stroke="red" cx="243" cy="-162" rx="27" ry="18"/>
<text text-anchor="middle" x="243" y="-158.3" font-family="Times,serif" font-size="14.00">20</text>
</g>
<!-- new10&#45;&gt;new20 -->
<g id="edge8" class="edge">
<title>new10&#45;&gt;new20</title>
<path fill="none" stroke="red" d="M229.36,-216.05C231.39,-208.14 233.86,-198.54 236.14,-189.69"/>
<polygon fill="red" stroke="red" points="239.58,-190.35 238.68,-179.79 232.8,-188.6 239.58,-190.35"/>
</g>
<!-- new20&#45;&gt;22 -->
<g id="edge10" class="edge">
<title>new20&#45;&gt;22</title>
<path fill="none" stroke="red" d="M243,-143.7C243,-135.98 243,-126.71 243,-118.11"/>
<polygon fill="red" stroke="red" points="246.5,-118.1 243,-108.1 239.5,-118.1 246.5,-118.1"/>
</g>
<!-- new12 -->
<g id="node10" class="node">
<title>new12</title>
<ellipse fill="none" stroke="red" cx="315" cy="-90" rx="27" ry="18"/>
<text text-anchor="middle" x="315" y="-86.3" font-family="Times,serif" font-size="14.00">12</text>
</g>
<!-- new20&#45;&gt;new12 -->
<g id="edge9" class="edge">
<title>new20&#45;&gt;new12</title>
<path fill="none" stroke="red" d="M257.57,-146.83C267.75,-136.94 281.52,-123.55 293.03,-112.36"/>
<polygon fill="red" stroke="red" points="295.47,-114.87 300.2,-105.38 290.59,-109.85 295.47,-114.87"/>
</g>
<!-- new13 -->
<g id="node11" class="node">
<title>new13</title>
<ellipse fill="none" stroke="red" cx="315" cy="-18" rx="27" ry="18"/>
<text text-anchor="middle" x="315" y="-14.3" font-family="Times,serif" font-size="14.00">13</text>
</g>
<!-- new12&#45;&gt;new13 -->
<g id="edge11" class="edge">
<title>new12&#45;&gt;new13</title>
<path fill="none" stroke="red" d="M315,-71.7C315,-63.98 315,-54.71 315,-46.11"/>
<polygon fill="red" stroke="red" points="318.5,-46.1 315,-36.1 311.5,-46.1 318.5,-46.1"/>
</g>
</g>
</svg>
